<svg width="24" height="24" viewBox="0 0 24 24" fill="none" xmlns="http://www.w3.org/2000/svg">
<path d="M21.99 6.547C21.9807 6.11802 21.9463 5.68996 21.887 5.265C21.8153 4.88707 21.6932 4.52046 21.524 4.175C21.154 3.44418 20.5606 2.8504 19.83 2.48C19.4867 2.31172 19.1225 2.18998 18.747 2.118C18.3188 2.05763 17.8874 2.02257 17.455 2.013C17.272 2.006 17.035 2.003 16.925 2.003L7.077 2C6.967 2 6.73 2.003 6.547 2.01C6.11802 2.0193 5.68996 2.05369 5.265 2.113C4.88707 2.1847 4.52046 2.30679 4.175 2.476C3.44418 2.84597 2.8504 3.4394 2.48 4.17C2.31172 4.5133 2.18998 4.87751 2.118 5.253C2.0573 5.68121 2.0219 6.11262 2.012 6.545C2.006 6.728 2.002 6.965 2.002 7.075L2 16.923C2 17.033 2.003 17.27 2.01 17.453C2.0193 17.882 2.05369 18.31 2.113 18.735C2.1847 19.1129 2.30679 19.4795 2.476 19.825C2.84597 20.5558 3.4394 21.1496 4.17 21.52C4.5133 21.6883 4.87751 21.81 5.253 21.882C5.68123 21.9424 6.11264 21.9774 6.545 21.987C6.728 21.994 6.965 21.997 7.075 21.997L16.923 21.999C17.033 21.999 17.27 21.996 17.453 21.989C17.882 21.9797 18.31 21.9453 18.735 21.886C19.1129 21.8143 19.4795 21.6922 19.825 21.523C20.5562 21.1532 21.1503 20.5598 21.521 19.829C21.6893 19.4857 21.811 19.1215 21.883 18.746C21.9437 18.3178 21.9791 17.8864 21.989 17.454C21.995 17.271 21.999 17.034 21.999 16.924L22 7.077C22 6.967 21.997 6.73 21.99 6.547ZM12.217 18.957H12.214C11.0235 18.9579 9.85194 18.6594 8.807 18.089L5.027 19.08L6.039 15.387C5.25545 14.0273 4.94237 12.4471 5.1483 10.8914C5.35423 9.33566 6.06765 7.89133 7.17797 6.78233C8.28829 5.67333 9.73347 4.96162 11.2894 4.75755C12.8454 4.55347 14.4252 4.86843 15.784 5.65359C17.1427 6.43876 18.2045 7.65026 18.8046 9.10026C19.4048 10.5503 19.5098 12.1578 19.1034 13.6735C18.697 15.1893 17.8018 16.5286 16.5568 17.4839C15.3117 18.4391 13.7863 18.9569 12.217 18.957Z" fill="#F6F6F6"/>
<path d="M12.2202 5.90139C11.1613 5.90108 10.1217 6.18447 9.20937 6.72208C8.29708 7.25969 7.54547 8.03189 7.03272 8.95838C6.51996 9.88487 6.26478 10.9318 6.29372 11.9903C6.32265 13.0489 6.63464 14.0803 7.19724 14.9774L7.33824 15.2014L6.73924 17.3874L8.98224 16.7994L9.19824 16.9274C10.111 17.469 11.1529 17.7543 12.2142 17.7534H12.2172C13.789 17.7537 15.2966 17.1295 16.4082 16.0183C17.5198 14.907 18.1445 13.3997 18.1447 11.8279C18.145 10.2561 17.5209 8.74855 16.4096 7.63693C15.2984 6.52531 13.791 5.90066 12.2192 5.90039L12.2202 5.90139ZM15.7042 14.3714C15.5733 14.588 15.3989 14.7751 15.1921 14.9209C14.9852 15.0667 14.7503 15.168 14.5022 15.2184C14.1279 15.2827 13.7437 15.2587 13.3802 15.1484C13.0354 15.0415 12.6965 14.916 12.3652 14.7724C11.135 14.155 10.0863 13.2283 9.32224 12.0834C8.90526 11.5534 8.65222 10.9132 8.59424 10.2414C8.58962 9.96413 8.64271 9.68894 8.75013 9.43329C8.85755 9.17765 9.01696 8.94713 9.21824 8.75639C9.27796 8.68872 9.35092 8.63401 9.43262 8.59565C9.51432 8.5573 9.60302 8.53611 9.69324 8.53339C9.81124 8.53339 9.93024 8.53339 10.0342 8.53939C10.1442 8.54439 10.2902 8.49739 10.4342 8.84539C10.5842 9.20139 10.9402 10.0784 10.9842 10.1674C11.0123 10.2141 11.0284 10.2671 11.031 10.3215C11.0336 10.3759 11.0227 10.4302 10.9992 10.4794C10.9546 10.5865 10.8946 10.6865 10.8212 10.7764C10.7312 10.8804 10.6342 11.0084 10.5542 11.0884C10.4642 11.1774 10.3722 11.2734 10.4752 11.4514C10.7432 11.9092 11.0771 12.325 11.4662 12.6854C11.8893 13.0605 12.3741 13.3596 12.8992 13.5694C13.0772 13.6594 13.1812 13.6434 13.2852 13.5244C13.3892 13.4054 13.7302 13.0044 13.8492 12.8264C13.9682 12.6484 14.0862 12.6784 14.2492 12.7374C14.4122 12.7964 15.2892 13.2274 15.4672 13.3174C15.6452 13.4074 15.7642 13.4504 15.8082 13.5244C15.8563 13.8108 15.8202 14.1051 15.7042 14.3714Z" fill="#F6F6F6"/>
</svg>
